<?xml version="1.0" encoding="utf-8"?>
<!-- Generator: Adobe Illustrator 27.0.0, SVG Export Plug-In . SVG Version: 6.00 Build 0)  -->
<svg version="1.1" id="Livello_1" xmlns="http://www.w3.org/2000/svg" xmlns:xlink="http://www.w3.org/1999/xlink" x="0px" y="0px"
	 viewBox="0 0 412.6 57.8" style="enable-background:new 0 0 412.6 57.8;" xml:space="preserve">
<style type="text/css">
	.st0{fill:#070606;}
	.st1{fill:#1F140F;}
</style>
<g>
	<g>
		<rect class="st0" width="1.8" height="38.4"/>
		<rect x="3.1" class="st0" width="0.9" height="38.4"/>
		<rect x="5.6" class="st0" width="1.2" height="38.4"/>
		<rect x="7.9" class="st0" width="0.6" height="38.4"/>
		<rect x="10" class="st0" width="2.4" height="38.4"/>
		<rect x="116.1" class="st0" width="1.8" height="38.4"/>
		<rect x="121.3" class="st0" width="0.9" height="38.4"/>
		<rect x="123.7" class="st0" width="1.2" height="38.4"/>
		<rect x="126" class="st0" width="0.6" height="38.4"/>
		<rect x="128.1" class="st0" width="2.4" height="38.4"/>
		<rect x="14" class="st0" width="1.5" height="38.4"/>
		<rect x="16.4" class="st0" width="0.7" height="38.4"/>
		<rect x="21.8" class="st0" width="0.5" height="38.4"/>
		<rect x="19" class="st0" width="1.3" height="38.4"/>
		<rect x="23.3" class="st0" width="1.8" height="38.4"/>
		<rect x="51.8" class="st0" width="0.7" height="38.4"/>
		<rect x="58.9" class="st0" width="0.5" height="38.4"/>
		<rect x="54.4" class="st0" width="2.2" height="38.4"/>
		<rect x="60.4" class="st0" width="1.8" height="38.4"/>
		<rect x="27.8" class="st0" width="0.9" height="38.4"/>
		<rect x="31.6" class="st0" width="1.2" height="38.4"/>
		<rect x="33.9" class="st0" width="0.6" height="38.4"/>
		<rect x="36" class="st0" width="1.5" height="38.4"/>
		<rect x="38.9" class="st0" width="2.6" height="38.4"/>
		<rect x="42.4" class="st0" width="0.7" height="38.4"/>
		<rect x="64.7" class="st0" width="1.2" height="38.4"/>
		<rect x="67" class="st0" width="0.6" height="38.4"/>
		<rect x="69.1" class="st0" width="1.5" height="38.4"/>
		<rect x="72" class="st0" width="2.6" height="38.4"/>
		<rect x="75.6" class="st0" width="0.7" height="38.4"/>
		<rect x="48.5" class="st0" width="0.5" height="38.4"/>
		<rect x="46.3" class="st0" width="1.3" height="38.4"/>
		<rect x="380" class="st0" width="0.7" height="38.4"/>
		<rect x="385.4" class="st0" width="0.5" height="38.4"/>
		<rect x="382.5" class="st0" width="1.3" height="38.4"/>
		<rect x="386.9" class="st0" width="1.8" height="38.4"/>
		<rect x="391.4" class="st0" width="0.9" height="38.4"/>
		<rect x="395.1" class="st0" width="1.2" height="38.4"/>
		<rect x="397.5" class="st0" width="0.6" height="38.4"/>
		<rect x="399.5" class="st0" width="1.5" height="38.4"/>
		<rect x="402.5" class="st0" width="2.6" height="38.4"/>
		<rect x="406" class="st0" width="0.7" height="38.4"/>
		<rect x="412.1" class="st0" width="0.5" height="38.4"/>
		<rect x="409.9" class="st0" width="1.3" height="38.4"/>
		<rect x="133.5" class="st0" width="0.9" height="38.4"/>
		<rect x="137.2" class="st0" width="1.2" height="38.4"/>
		<rect x="139.5" class="st0" width="0.6" height="38.4"/>
		<rect x="141.6" class="st0" width="1.5" height="38.4"/>
		<rect x="144.5" class="st0" width="2.6" height="38.4"/>
		<rect x="148.1" class="st0" width="0.7" height="38.4"/>
		<rect x="92" transform="matrix(-1 -1.224647e-16 1.224647e-16 -1 184.6939 38.3529)" class="st0" width="0.7" height="38.4"/>
		<rect x="85.1" transform="matrix(-1 -1.224647e-16 1.224647e-16 -1 170.7867 38.3529)" class="st0" width="0.5" height="38.4"/>
		<rect x="88" transform="matrix(-1 -1.224647e-16 1.224647e-16 -1 178.1977 38.3529)" class="st0" width="2.2" height="38.4"/>
		<rect x="82.3" transform="matrix(-1 -1.224647e-16 1.224647e-16 -1 166.5033 38.3529)" class="st0" width="1.8" height="38.4"/>
		<rect x="111.7" transform="matrix(-1 -1.224647e-16 1.224647e-16 -1 224.7346 38.3529)" class="st0" width="1.2" height="38.4"/>
		<rect x="110" transform="matrix(-1 -1.224647e-16 1.224647e-16 -1 220.6781 38.3529)" class="st0" width="0.6" height="38.4"/>
		<rect x="107.1" transform="matrix(-1 -1.224647e-16 1.224647e-16 -1 215.6429 38.3529)" class="st0" width="1.5" height="38.4"/>
		<rect x="103" transform="matrix(-1 -1.224647e-16 1.224647e-16 -1 208.6928 38.3529)" class="st0" width="2.6" height="38.4"/>
		<rect x="101.4" transform="matrix(-1 -1.224647e-16 1.224647e-16 -1 203.5015 38.3529)" class="st0" width="0.7" height="38.4"/>
		<rect x="78.6" transform="matrix(-1 -1.224647e-16 1.224647e-16 -1 158.4539 38.3529)" class="st0" width="1.2" height="38.4"/>
		<rect x="95.5" transform="matrix(-1 -1.224647e-16 1.224647e-16 -1 191.573 38.3529)" class="st0" width="0.5" height="38.4"/>
		<rect x="97" transform="matrix(-1 -1.224647e-16 1.224647e-16 -1 195.2041 38.3529)" class="st0" width="1.3" height="38.4"/>
		<rect x="173" class="st0" width="0.7" height="38.4"/>
		<rect x="180.1" class="st0" width="0.5" height="38.4"/>
		<rect x="175.6" class="st0" width="2.2" height="38.4"/>
		<rect x="181.6" class="st0" width="1.8" height="38.4"/>
		<rect x="152.8" class="st0" width="1.2" height="38.4"/>
		<rect x="155.1" class="st0" width="0.6" height="38.4"/>
		<rect x="157.2" class="st0" width="1.5" height="38.4"/>
		<rect x="160.1" class="st0" width="2.6" height="38.4"/>
		<rect x="163.6" class="st0" width="0.7" height="38.4"/>
		<rect x="185.9" class="st0" width="1.2" height="38.4"/>
		<rect x="188.3" class="st0" width="0.6" height="38.4"/>
		<rect x="190.3" class="st0" width="1.5" height="38.4"/>
		<rect x="193.3" class="st0" width="2.6" height="38.4"/>
		<rect x="196.8" class="st0" width="0.7" height="38.4"/>
		<rect x="169.7" class="st0" width="0.5" height="38.4"/>
		<rect x="167.5" class="st0" width="1.3" height="38.4"/>
		<rect x="213.2" transform="matrix(-1 -1.224647e-16 1.224647e-16 -1 427.1203 38.3529)" class="st0" width="0.7" height="38.4"/>
		<rect x="206.3" transform="matrix(-1 -1.224647e-16 1.224647e-16 -1 413.2131 38.3529)" class="st0" width="0.5" height="38.4"/>
		<rect x="209.2" transform="matrix(-1 -1.224647e-16 1.224647e-16 -1 420.6243 38.3529)" class="st0" width="2.2" height="38.4"/>
		<rect x="203.6" transform="matrix(-1 -1.224647e-16 1.224647e-16 -1 408.9297 38.3529)" class="st0" width="1.8" height="38.4"/>
		<rect x="231.2" transform="matrix(-1 -1.224647e-16 1.224647e-16 -1 463.1046 38.3529)" class="st0" width="0.6" height="38.4"/>
		<rect x="228.3" transform="matrix(-1 -1.224647e-16 1.224647e-16 -1 458.0693 38.3529)" class="st0" width="1.5" height="38.4"/>
		<rect x="224.3" transform="matrix(-1 -1.224647e-16 1.224647e-16 -1 451.1194 38.3529)" class="st0" width="2.6" height="38.4"/>
		<rect x="222.6" transform="matrix(-1 -1.224647e-16 1.224647e-16 -1 445.9281 38.3529)" class="st0" width="0.7" height="38.4"/>
		<rect x="199.8" transform="matrix(-1 -1.224647e-16 1.224647e-16 -1 400.8803 38.3529)" class="st0" width="1.2" height="38.4"/>
		<rect x="216.7" transform="matrix(-1 -1.224647e-16 1.224647e-16 -1 433.9995 38.3529)" class="st0" width="0.5" height="38.4"/>
		<rect x="218.2" transform="matrix(-1 -1.224647e-16 1.224647e-16 -1 437.6305 38.3529)" class="st0" width="1.3" height="38.4"/>
		<rect x="336.6" transform="matrix(-1 -1.224647e-16 1.224647e-16 -1 674.9417 38.3529)" class="st0" width="1.8" height="38.4"/>
		<rect x="332.3" transform="matrix(-1 -1.224647e-16 1.224647e-16 -1 665.552 38.3529)" class="st0" width="0.9" height="38.4"/>
		<rect x="329.6" transform="matrix(-1 -1.224647e-16 1.224647e-16 -1 660.3891 38.3529)" class="st0" width="1.2" height="38.4"/>
		<rect x="327.9" transform="matrix(-1 -1.224647e-16 1.224647e-16 -1 656.3327 38.3529)" class="st0" width="0.6" height="38.4"/>
		<rect x="324" transform="matrix(-1 -1.224647e-16 1.224647e-16 -1 650.4463 38.3529)" class="st0" width="2.4" height="38.4"/>
		<rect x="320.1" transform="matrix(-1 -1.224647e-16 1.224647e-16 -1 641.1844 38.3529)" class="st0" width="0.9" height="38.4"/>
		<rect x="316.1" transform="matrix(-1 -1.224647e-16 1.224647e-16 -1 633.3549 38.3529)" class="st0" width="1.2" height="38.4"/>
		<rect x="314.3" transform="matrix(-1 -1.224647e-16 1.224647e-16 -1 629.2985 38.3529)" class="st0" width="0.6" height="38.4"/>
		<rect x="311.4" transform="matrix(-1 -1.224647e-16 1.224647e-16 -1 624.2632 38.3529)" class="st0" width="1.5" height="38.4"/>
		<rect x="307.4" transform="matrix(-1 -1.224647e-16 1.224647e-16 -1 617.3131 38.3529)" class="st0" width="2.6" height="38.4"/>
		<rect x="305.7" transform="matrix(-1 -1.224647e-16 1.224647e-16 -1 612.1218 38.3529)" class="st0" width="0.7" height="38.4"/>
		<rect x="361.8" class="st0" width="0.7" height="38.4"/>
		<rect x="368.8" class="st0" width="0.5" height="38.4"/>
		<rect x="364.3" class="st0" width="2.2" height="38.4"/>
		<rect x="370.3" class="st0" width="1.8" height="38.4"/>
		<rect x="341.5" class="st0" width="1.2" height="38.4"/>
		<rect x="343.8" class="st0" width="0.6" height="38.4"/>
		<rect x="345.9" class="st0" width="1.5" height="38.4"/>
		<rect x="348.8" class="st0" width="2.6" height="38.4"/>
		<rect x="352.4" class="st0" width="0.7" height="38.4"/>
		<rect x="374.6" class="st0" width="1.2" height="38.4"/>
		<rect x="358.5" class="st0" width="0.5" height="38.4"/>
		<rect x="356.3" class="st0" width="1.3" height="38.4"/>
		<rect x="280.7" transform="matrix(-1 -1.224647e-16 1.224647e-16 -1 562.1691 38.3529)" class="st0" width="0.7" height="38.4"/>
		<rect x="273.9" transform="matrix(-1 -1.224647e-16 1.224647e-16 -1 548.2618 38.3529)" class="st0" width="0.5" height="38.4"/>
		<rect x="276.8" transform="matrix(-1 -1.224647e-16 1.224647e-16 -1 555.6729 38.3529)" class="st0" width="2.2" height="38.4"/>
		<rect x="271.1" transform="matrix(-1 -1.224647e-16 1.224647e-16 -1 543.9783 38.3529)" class="st0" width="1.8" height="38.4"/>
		<rect x="300.5" transform="matrix(-1 -1.224647e-16 1.224647e-16 -1 602.2098 38.3529)" class="st0" width="1.2" height="38.4"/>
		<rect x="298.8" transform="matrix(-1 -1.224647e-16 1.224647e-16 -1 598.1533 38.3529)" class="st0" width="0.6" height="38.4"/>
		<rect x="295.8" transform="matrix(-1 -1.224647e-16 1.224647e-16 -1 593.1179 38.3529)" class="st0" width="1.5" height="38.4"/>
		<rect x="291.8" transform="matrix(-1 -1.224647e-16 1.224647e-16 -1 586.168 38.3529)" class="st0" width="2.6" height="38.4"/>
		<rect x="290.1" transform="matrix(-1 -1.224647e-16 1.224647e-16 -1 580.9767 38.3529)" class="st0" width="0.7" height="38.4"/>
		<rect x="267.3" transform="matrix(-1 -1.224647e-16 1.224647e-16 -1 535.929 38.3529)" class="st0" width="1.2" height="38.4"/>
		<rect x="265.6" transform="matrix(-1 -1.224647e-16 1.224647e-16 -1 531.8725 38.3529)" class="st0" width="0.6" height="38.4"/>
		<rect x="262.7" transform="matrix(-1 -1.224647e-16 1.224647e-16 -1 526.8374 38.3529)" class="st0" width="1.5" height="38.4"/>
		<rect x="258.6" transform="matrix(-1 -1.224647e-16 1.224647e-16 -1 519.8872 38.3529)" class="st0" width="2.6" height="38.4"/>
		<rect x="257" transform="matrix(-1 -1.224647e-16 1.224647e-16 -1 514.6959 38.3529)" class="st0" width="0.7" height="38.4"/>
		<rect x="284.3" transform="matrix(-1 -1.224647e-16 1.224647e-16 -1 569.0482 38.3529)" class="st0" width="0.5" height="38.4"/>
		<rect x="285.7" transform="matrix(-1 -1.224647e-16 1.224647e-16 -1 572.6793 38.3529)" class="st0" width="1.3" height="38.4"/>
		<rect x="240.6" class="st0" width="0.7" height="38.4"/>
		<rect x="247.6" class="st0" width="0.5" height="38.4"/>
		<rect x="243.1" class="st0" width="2.2" height="38.4"/>
		<rect x="249.1" class="st0" width="1.8" height="38.4"/>
		<rect x="253.4" class="st0" width="1.2" height="38.4"/>
		<rect x="237.2" class="st0" width="0.5" height="38.4"/>
		<rect x="235" class="st0" width="1.3" height="38.4"/>
	</g>
	<g>
		<path class="st1" d="M145.7,57.6v-11h4.1c0.8,0,1.5,0.1,2,0.3c0.5,0.2,0.9,0.6,1.2,1c0.3,0.5,0.4,1,0.4,1.5c0,0.5-0.1,0.9-0.4,1.3
			c-0.3,0.4-0.6,0.8-1.2,1c0.7,0.2,1.2,0.5,1.5,1c0.4,0.5,0.5,1,0.5,1.7c0,0.5-0.1,1-0.3,1.4c-0.2,0.4-0.5,0.8-0.8,1
			s-0.7,0.4-1.2,0.5c-0.5,0.1-1.1,0.2-1.8,0.2H145.7z M147.1,51.2h2.4c0.6,0,1.1,0,1.4-0.1c0.4-0.1,0.7-0.3,0.8-0.5
			c0.2-0.3,0.3-0.6,0.3-1c0-0.4-0.1-0.7-0.3-1s-0.4-0.5-0.8-0.6c-0.3-0.1-0.9-0.2-1.7-0.2h-2.2V51.2z M147.1,56.3h2.7
			c0.5,0,0.8,0,1-0.1c0.3-0.1,0.6-0.2,0.8-0.3s0.4-0.3,0.6-0.6c0.1-0.3,0.2-0.6,0.2-0.9c0-0.4-0.1-0.8-0.3-1.1s-0.5-0.5-0.9-0.6
			s-0.9-0.2-1.6-0.2h-2.6V56.3z"/>
		<path class="st1" d="M155.6,52.2c0-1.8,0.5-3.3,1.5-4.3c1-1,2.3-1.6,3.8-1.6c1,0,1.9,0.2,2.8,0.7s1.4,1.2,1.9,2
			c0.4,0.9,0.6,1.9,0.6,3c0,1.1-0.2,2.1-0.7,3c-0.5,0.9-1.1,1.6-1.9,2c-0.8,0.5-1.7,0.7-2.7,0.7c-1,0-2-0.3-2.8-0.8
			c-0.8-0.5-1.4-1.2-1.9-2.1C155.8,54.1,155.6,53.2,155.6,52.2z M157.1,52.2c0,1.3,0.4,2.4,1.1,3.1c0.7,0.8,1.6,1.1,2.7,1.1
			c1.1,0,2-0.4,2.7-1.2s1.1-1.9,1.1-3.3c0-0.9-0.2-1.7-0.5-2.4c-0.3-0.7-0.7-1.2-1.3-1.6s-1.2-0.6-2-0.6c-1,0-1.9,0.4-2.7,1.1
			C157.5,49.4,157.1,50.6,157.1,52.2z"/>
		<path class="st1" d="M167.6,52.2c0-1.8,0.5-3.3,1.5-4.3c1-1,2.3-1.6,3.8-1.6c1,0,1.9,0.2,2.8,0.7s1.4,1.2,1.9,2
			c0.4,0.9,0.6,1.9,0.6,3c0,1.1-0.2,2.1-0.7,3c-0.5,0.9-1.1,1.6-1.9,2c-0.8,0.5-1.7,0.7-2.7,0.7c-1,0-2-0.3-2.8-0.8
			c-0.8-0.5-1.4-1.2-1.9-2.1C167.8,54.1,167.6,53.2,167.6,52.2z M169.1,52.2c0,1.3,0.4,2.4,1.1,3.1c0.7,0.8,1.6,1.1,2.7,1.1
			c1.1,0,2-0.4,2.7-1.2s1.1-1.9,1.1-3.3c0-0.9-0.2-1.7-0.5-2.4c-0.3-0.7-0.7-1.2-1.3-1.6s-1.2-0.6-2-0.6c-1,0-1.9,0.4-2.7,1.1
			C169.5,49.4,169.1,50.6,169.1,52.2z"/>
		<path class="st1" d="M180,57.6v-11h1.5v9.7h5.4v1.3H180z"/>
		<path class="st1" d="M195.2,56.3v1.3h-7.3c0-0.3,0-0.6,0.2-0.9c0.2-0.5,0.5-1,0.9-1.5s1-1,1.8-1.7c1.2-1,2-1.8,2.4-2.3
			s0.6-1.1,0.6-1.6c0-0.5-0.2-1-0.6-1.4c-0.4-0.4-0.9-0.6-1.5-0.6c-0.7,0-1.2,0.2-1.6,0.6s-0.6,0.9-0.6,1.6l-1.4-0.1
			c0.1-1,0.5-1.8,1.1-2.4c0.6-0.5,1.5-0.8,2.5-0.8c1.1,0,1.9,0.3,2.5,0.9c0.6,0.6,0.9,1.3,0.9,2.2c0,0.4-0.1,0.9-0.3,1.3
			s-0.5,0.9-0.9,1.3c-0.4,0.5-1.1,1.1-2.1,1.9c-0.8,0.7-1.3,1.1-1.6,1.4c-0.2,0.2-0.4,0.5-0.6,0.7H195.2z"/>
		<path class="st1" d="M196.6,52.1c0-1.3,0.1-2.4,0.4-3.2s0.7-1.4,1.2-1.8c0.5-0.4,1.2-0.6,2-0.6c0.6,0,1.1,0.1,1.6,0.4
			c0.4,0.2,0.8,0.6,1.1,1c0.3,0.4,0.5,1,0.7,1.6c0.2,0.6,0.2,1.5,0.2,2.6c0,1.3-0.1,2.3-0.4,3.1c-0.3,0.8-0.7,1.4-1.2,1.8
			c-0.5,0.4-1.2,0.7-2,0.7c-1.1,0-1.9-0.4-2.5-1.1C197,55.7,196.6,54.2,196.6,52.1z M198,52.1c0,1.8,0.2,3,0.6,3.6
			c0.4,0.6,0.9,0.9,1.6,0.9s1.1-0.3,1.6-0.9c0.4-0.6,0.6-1.8,0.6-3.6c0-1.8-0.2-3-0.6-3.6c-0.4-0.6-1-0.9-1.6-0.9
			c-0.6,0-1.1,0.3-1.5,0.8C198.3,49.1,198,50.3,198,52.1z"/>
		<path class="st1" d="M212.3,56.3v1.3H205c0-0.3,0-0.6,0.2-0.9c0.2-0.5,0.5-1,0.9-1.5s1-1,1.8-1.7c1.2-1,2-1.8,2.4-2.3
			c0.4-0.6,0.6-1.1,0.6-1.6c0-0.5-0.2-1-0.6-1.4c-0.4-0.4-0.9-0.6-1.5-0.6c-0.7,0-1.2,0.2-1.6,0.6c-0.4,0.4-0.6,0.9-0.6,1.6
			l-1.4-0.1c0.1-1,0.5-1.8,1.1-2.4c0.6-0.5,1.5-0.8,2.5-0.8c1.1,0,1.9,0.3,2.5,0.9c0.6,0.6,0.9,1.3,0.9,2.2c0,0.4-0.1,0.9-0.3,1.3
			c-0.2,0.4-0.5,0.9-0.9,1.3s-1.1,1.1-2.1,1.9c-0.8,0.7-1.3,1.1-1.6,1.4c-0.2,0.2-0.4,0.5-0.6,0.7H212.3z"/>
		<path class="st1" d="M213.8,54.7l1.4-0.2c0.2,0.8,0.4,1.3,0.8,1.7s0.8,0.5,1.4,0.5c0.6,0,1.2-0.2,1.6-0.7c0.4-0.4,0.7-1,0.7-1.6
			c0-0.6-0.2-1.1-0.6-1.5c-0.4-0.4-0.9-0.6-1.6-0.6c-0.3,0-0.6,0.1-1,0.2l0.2-1.2c0.1,0,0.2,0,0.2,0c0.6,0,1.1-0.2,1.6-0.5
			c0.5-0.3,0.7-0.8,0.7-1.4c0-0.5-0.2-0.9-0.5-1.2c-0.3-0.3-0.8-0.5-1.3-0.5c-0.5,0-1,0.2-1.3,0.5c-0.4,0.3-0.6,0.8-0.7,1.5
			l-1.4-0.2c0.2-0.9,0.5-1.6,1.1-2.1c0.6-0.5,1.3-0.7,2.2-0.7c0.6,0,1.2,0.1,1.7,0.4c0.5,0.3,0.9,0.6,1.2,1.1s0.4,0.9,0.4,1.4
			c0,0.5-0.1,0.9-0.4,1.3c-0.3,0.4-0.6,0.7-1.1,0.9c0.7,0.2,1.2,0.5,1.5,0.9c0.4,0.5,0.5,1.1,0.5,1.8c0,1-0.4,1.8-1.1,2.5
			c-0.7,0.7-1.6,1-2.7,1c-1,0-1.8-0.3-2.4-0.9C214.2,56.3,213.9,55.6,213.8,54.7z"/>
		<path class="st1" d="M227.5,57.6h-1.4v-8.6c-0.3,0.3-0.8,0.6-1.3,0.9c-0.5,0.3-1,0.5-1.4,0.7v-1.3c0.8-0.4,1.4-0.8,2-1.3
			c0.6-0.5,1-1,1.2-1.5h0.9V57.6z"/>
		<path class="st1" d="M230.9,52.1c0-1.3,0.1-2.4,0.4-3.2s0.7-1.4,1.2-1.8c0.5-0.4,1.2-0.6,2-0.6c0.6,0,1.1,0.1,1.6,0.4
			c0.4,0.2,0.8,0.6,1.1,1c0.3,0.4,0.5,1,0.7,1.6c0.2,0.6,0.2,1.5,0.2,2.6c0,1.3-0.1,2.3-0.4,3.1c-0.3,0.8-0.7,1.4-1.2,1.8
			c-0.5,0.4-1.2,0.7-2,0.7c-1.1,0-1.9-0.4-2.5-1.1C231.3,55.7,230.9,54.2,230.9,52.1z M232.3,52.1c0,1.8,0.2,3,0.6,3.6
			c0.4,0.6,0.9,0.9,1.6,0.9c0.6,0,1.1-0.3,1.6-0.9c0.4-0.6,0.6-1.8,0.6-3.6c0-1.8-0.2-3-0.6-3.6c-0.4-0.6-1-0.9-1.6-0.9
			c-0.6,0-1.1,0.3-1.5,0.8C232.6,49.1,232.3,50.3,232.3,52.1z"/>
		<path class="st1" d="M241.6,51.6c-0.6-0.2-1-0.5-1.2-0.9c-0.3-0.4-0.4-0.8-0.4-1.4c0-0.8,0.3-1.5,0.9-2c0.6-0.5,1.3-0.8,2.3-0.8
			c1,0,1.7,0.3,2.3,0.8c0.6,0.6,0.9,1.2,0.9,2c0,0.5-0.1,1-0.4,1.3s-0.7,0.7-1.2,0.9c0.7,0.2,1.2,0.6,1.5,1.1
			c0.4,0.5,0.5,1.1,0.5,1.8c0,0.9-0.3,1.7-1,2.4c-0.7,0.6-1.5,1-2.6,1c-1.1,0-2-0.3-2.6-1c-0.7-0.6-1-1.5-1-2.4
			c0-0.7,0.2-1.3,0.5-1.8S240.9,51.8,241.6,51.6z M240.9,54.4c0,0.4,0.1,0.8,0.3,1.1c0.2,0.4,0.5,0.6,0.8,0.8s0.8,0.3,1.2,0.3
			c0.6,0,1.2-0.2,1.6-0.6c0.4-0.4,0.6-0.9,0.6-1.6c0-0.7-0.2-1.2-0.7-1.6s-1-0.6-1.6-0.6c-0.6,0-1.2,0.2-1.6,0.6
			S240.9,53.8,240.9,54.4z M241.3,49.3c0,0.5,0.2,0.9,0.5,1.3c0.3,0.3,0.8,0.5,1.3,0.5c0.5,0,1-0.2,1.3-0.5s0.5-0.7,0.5-1.2
			c0-0.5-0.2-0.9-0.5-1.3c-0.3-0.3-0.8-0.5-1.3-0.5c-0.5,0-0.9,0.2-1.3,0.5C241.5,48.4,241.3,48.8,241.3,49.3z"/>
	</g>
</g>
</svg>
