<?xml version="1.0" encoding="utf-8"?>
<!-- Generator: Adobe Illustrator 27.0.0, SVG Export Plug-In . SVG Version: 6.00 Build 0)  -->
<svg version="1.1"
	 id="svg6986" xmlns:svg="http://www.w3.org/2000/svg" xmlns:dc="http://purl.org/dc/elements/1.1/" xmlns:rdf="http://www.w3.org/1999/02/22-rdf-syntax-ns#" xmlns:cc="http://creativecommons.org/ns#"
	 xmlns="http://www.w3.org/2000/svg" xmlns:xlink="http://www.w3.org/1999/xlink" x="0px" y="0px" viewBox="0 0 892.9 90"
	 style="enable-background:new 0 0 892.9 90;" xml:space="preserve">
<style type="text/css">
	.st0{fill:#006B3B;}
	.st1{fill:#D91920;}
</style>
<path id="path6916" class="st0" d="M99,3.6H33c-1.8,0-3.7,0.4-5.5,1.1c-4.4,1.9-7.5,5.7-8.8,10.1L18.6,15c43.2,14.8,55.9,48.9,56,59
	v0.7c0,4.1-2.9,9.1-7.5,11.6H82c1.9,0,3.7-0.4,5.5-1.1c4.4-1.9,7.5-5.7,8.8-10.1L111,20.5c0.3-1.1,0.5-2.3,0.5-3.5
	C111.6,9.6,106,3.6,99,3.6"/>
<path id="path6918" class="st1" d="M67.2,70.7C67.4,59,53.1,46.4,46,40c-1.3-1-2.4-1.9-3.3-2.5c-1.5,1.8-11.6,4-30.1,0l-0.1,0.2
	l-9,33.6c0,0,0,0,0,0C23.1,83.1,67.1,89.7,67.2,70.7"/>
<g>
	<polygon class="st0" points="326.4,86.3 326.4,86.3 420.3,86.3 424.5,71.4 330.4,71.4 	"/>
	<path class="st0" d="M307.4,3.7L307.4,3.7l-176.8,0l-4,15.1h56.3l-18.1,67.6h18.7l18.1-67.6l105.1,0.1c4.5,0,7.3,2,5,10.2
		c-2.2,7.8-5.3,8.6-9.8,8.6h-71.4l-3.8,14.8L285,86.3h26.4l1-3.7l-52.1-30.2l38.1,0.1c18.2,0,23-4.1,27.6-20.5l1.8-6.7
		C331.6,11,323.1,3.7,307.4,3.7z"/>
	<polygon class="st0" points="335.5,52.5 429.5,52.5 433.5,37.5 339.6,37.5 	"/>
	<path class="st0" d="M510,3.7L510,3.7l-161.3,0l-4.1,15h109.1l-18.2,67.7h18.7l18.2-67.7h29.9c18.8,0,24.3,7.7,19.9,24.7l-11.5,43
		h18.6l11.4-42.8C546.6,22.5,533,3.7,510,3.7z"/>
	<polygon class="st0" points="544.7,86.3 544.7,86.3 638.6,86.3 642.7,71.4 548.6,71.4 	"/>
	<polygon class="st0" points="553.7,52.5 647.7,52.5 651.8,37.5 557.8,37.5 	"/>
	<path class="st0" d="M754.4,3.7H567l-4.1,15l190.9,0.2c4.4,0,7.2,2,4.9,10.2c-2.2,7.8-5.1,8.6-9.6,8.6h-71.7l-3.8,14.8l58.2,33.9
		h26.4l1-3.7l-52.1-30.1l38.3,0c18.2,0,23-4.1,27.6-20.5l1.7-6.7C778.6,11,770.1,3.7,754.4,3.7z"/>
	<path class="st0" d="M889.4,65.1c-0.2-9.5-2.9-18.8-8.7-27.5c-7.6-11.4-19.1-20.2-34-26.2h0c-13.4-5.3-28.5-7.7-41.7-7.7h-9.2
		l-22.2,82.6h112.7C886.1,86.3,889.5,75.3,889.4,65.1z M871.3,71.4h-75l14.2-52.7c11.4,0,21.6,2.2,30.7,5.9
		c13,5.3,21.1,13.5,26,22.2C873.4,57.9,871.4,70.3,871.3,71.4z"/>
</g>
</svg>
